<svg xmlns="http://www.w3.org/2000/svg" viewBox="0 0 240 165" aria-hidden="true"><defs><linearGradient id="export-samosa-cream" x1="0" y1="0" x2="1" y2="1"><stop stop-color="#fff5df"/><stop offset="1" stop-color="#e6d4ad"/></linearGradient><linearGradient id="export-samosa-bread" x1="0" y1="0" x2="1" y2="1"><stop stop-color="#f9dea4"/><stop offset="1" stop-color="#ce934e"/></linearGradient><linearGradient id="export-samosa-silver" x1="0" y1="0" x2="1" y2="1"><stop stop-color="#f4f6f2"/><stop offset="1" stop-color="#b5bcb8"/></linearGradient><linearGradient id="export-samosa-green" x1="0" y1="0" x2="1" y2="1"><stop stop-color="#8fb05d"/><stop offset="1" stop-color="#66833c"/></linearGradient><linearGradient id="export-samosa-red" x1="0" y1="0" x2="1" y2="1"><stop stop-color="#d66d4f"/><stop offset="1" stop-color="#b64636"/></linearGradient><linearGradient id="export-samosa-dark" x1="0" y1="0" x2="1" y2="1"><stop stop-color="#6f4a36"/><stop offset="1" stop-color="#412b24"/></linearGradient><linearGradient id="export-samosa-gold" x1="0" y1="0" x2="1" y2="1"><stop stop-color="#f5c15c"/><stop offset="1" stop-color="#d8892b"/></linearGradient><linearGradient id="export-samosa-bowl"><stop stop-color="#9da98b"/><stop offset=".55" stop-color="#eff0df"/><stop offset="1" stop-color="#b9c6a7"/></linearGradient></defs><ellipse cx="120" cy="148" rx="56" ry="6" fill="#574532" opacity=".12"/><ellipse cx="120" cy="140" rx="76" ry="9" fill="#ded9cb"/><g transform="rotate(-12 82 98)"><path d="M82 70  l26 52h-52Z" fill="url(#export-samosa-bread)"/><path d="M82 76  l18 35h-36Z" fill="#f7dfaf"/><path d="M72 101q10-7 20 0" stroke="#ab7438" stroke-width="2" fill="none" opacity=".4"/></g><g transform="rotate(4 118 82)"><path d="M118 54  l26 52h-52Z" fill="url(#export-samosa-bread)"/><path d="M118 60  l18 35h-36Z" fill="#f7dfaf"/><path d="M108 85q10-7 20 0" stroke="#ab7438" stroke-width="2" fill="none" opacity=".4"/></g><g transform="rotate(16 155 101)"><path d="M155 73  l26 52h-52Z" fill="url(#export-samosa-bread)"/><path d="M155 79  l18 35h-36Z" fill="#f7dfaf"/><path d="M145 104q10-7 20 0" stroke="#ab7438" stroke-width="2" fill="none" opacity=".4"/></g></svg>