<svg xmlns="http://www.w3.org/2000/svg" viewBox="0 0 240 165" aria-hidden="true"><defs><linearGradient id="export-wrap-bun" x2="0.2" y2="1"><stop stop-color="#f7c866"/><stop offset="1" stop-color="#d99431"/></linearGradient><linearGradient id="export-wrap-pack"><stop stop-color="#ee9564"/><stop offset="1" stop-color="#d8673d"/></linearGradient><linearGradient id="export-wrap-bowl"><stop stop-color="#9da98b"/><stop offset=".55" stop-color="#eff0df"/><stop offset="1" stop-color="#b9c6a7"/></linearGradient><linearGradient id="export-wrap-drink" x2=".2" y2="1"><stop stop-color="#e0e8ad"/><stop offset="1" stop-color="#c1cd7b"/></linearGradient><linearGradient id="export-wrap-tortilla"><stop stop-color="#f1e0b7"/><stop offset="1" stop-color="#d1b37e"/></linearGradient></defs><ellipse cx="120" cy="143" rx="54" ry="6" fill="#776849" opacity=".12"/><g transform="rotate(-14 120 95)"><path d="m87 42 69 3-15 97-44-1Z" fill="#ddb983"/><ellipse cx="122" cy="44" rx="35" ry="15" fill="#e7d3a2"/><path d="M90 46q8-15 19-6t19-4 20 5l5 10-25 5-22-6Z" fill="#78944a"/><path d="m102 42 13-7 13 7-8 9Z" fill="#ba7941"/><circle cx="138" cy="42" r="7" fill="#d96947"/><path d="m87 51 70 4-14 60-47-4Z" fill="url(#export-wrap-tortilla)"/><path d="m90 68 61 15m-59 6 55 14" stroke="#bc9a66" stroke-width="3" opacity=".35"/><path d="m95 103 49 8-3 31-44-1Z" fill="#ece9df"/><path d="m110 114 15 4-7 17" stroke="#819576" stroke-width="3" fill="none"/></g></svg>